<?xml version="1.0" encoding="utf-8"?>
<!-- Generator: Adobe Illustrator 21.1.0, SVG Export Plug-In . SVG Version: 6.00 Build 0)  -->
<svg version="1.1" id="Layer_1" xmlns="http://www.w3.org/2000/svg" xmlns:xlink="http://www.w3.org/1999/xlink" x="0px" y="0px"
	 viewBox="0 0 504 485.3" style="enable-background:new 0 0 504 485.3;" xml:space="preserve">
<style type="text/css">
	.st0{fill:none;stroke:#000000;stroke-width:6;stroke-miterlimit:10;}
	.st1{fill:none;stroke:#000000;stroke-width:11;stroke-miterlimit:10;}
	.st2{fill:none;}
	.st3{font-family:'MyriadPro-Regular';}
	.st4{font-size:117px;}
	.st5{fill:none;stroke:#000000;stroke-width:8;stroke-miterlimit:10;}
</style>
<g>
	<path class="st0" d="M159.6,285.1c-2.9-12.6-4-27.8-0.7-44.8c0.1-0.7,0.3-1.5,0.5-2.2c0.1-0.5,0.2-0.9,0.3-1.4"/>
	
		<ellipse transform="matrix(1 -9.732114e-03 9.732114e-03 1 -3.1518 1.7464)" class="st0" cx="177.9" cy="324.7" rx="43.6" ry="43.6"/>
	
		<ellipse transform="matrix(1 -9.732114e-03 9.732114e-03 1 -1.9036 1.7282)" class="st1" cx="176.6" cy="196.5" rx="43.6" ry="43.6"/>
	<rect x="230.3" y="148.7" class="st2" width="179.5" height="95.4"/>
	<text transform="matrix(1 0 0 1 230.3033 231.8099)" class="st3 st4">ksy</text>
	<rect x="87.4" y="78" class="st5" width="329.2" height="329.2"/>
</g>
</svg>
